<svg xmlns="http://www.w3.org/2000/svg" width="35" height="48.2" viewBox="0 0 35 48.2">
  <g id="curriculum-vitae_1_" data-name="curriculum-vitae (1)" transform="translate(-23.565 -17.237)">
    <g id="Group_100" data-name="Group 100" transform="translate(23.565 17.237)">
      <g id="Group_99" data-name="Group 99">
        <path id="Path_144" data-name="Path 144" d="M98.884,109.838v48.2h35v-48.2Zm11.531,8.2a6.123,6.123,0,0,1,5.084,2.267l-2.412,2.153a3.062,3.062,0,0,0-2.477-1.328,2.839,2.839,0,0,0,0,5.667,3.062,3.062,0,0,0,2.477-1.328l2.412,2.153a6.123,6.123,0,0,1-5.084,2.267c-3.643,0-6.314-2.445-6.314-5.926S106.772,118.042,110.415,118.042Zm17.7,32.394H104.651v-3.6h23.467Zm0-6.4H104.651v-3.6h23.467Zm0-6.4H104.651v-3.6h23.467Zm-4.2-8h-3.756L115.369,118.3h4.112l2.7,6.622,2.769-6.622h3.756Z" transform="translate(-98.884 -109.838)"/>
      </g>
    </g>
  </g>
</svg>
