<svg xmlns="http://www.w3.org/2000/svg" width="35" height="40.621" viewBox="0 0 35 40.621">
  <g id="experience_1_" data-name="experience (1)" transform="translate(-35.424)">
    <path id="Path_133" data-name="Path 133" d="M193.854,108.508h4.412a2.447,2.447,0,1,0-4.412,0Z" transform="translate(-145.691 -96.691)"/>
    <path id="Path_134" data-name="Path 134" d="M99.648,6.118a4.9,4.9,0,0,1,4.779,5.955h6.234V9.381a.816.816,0,0,0-.816-.816H108.2a8.837,8.837,0,0,0-.775-1.868l1.165-1.165a.816.816,0,0,0,0-1.154l-2.307-2.307a.816.816,0,0,0-1.154,0l-1.165,1.165a8.837,8.837,0,0,0-1.868-.775V.816A.816.816,0,0,0,101.279,0H98.016A.816.816,0,0,0,97.2.816V2.462a8.833,8.833,0,0,0-1.868.775L94.168,2.072a.816.816,0,0,0-1.154,0L90.707,4.379a.816.816,0,0,0,0,1.154L91.872,6.7A8.836,8.836,0,0,0,91.1,8.565H89.451a.816.816,0,0,0-.816.816v2.692h6.237A4.9,4.9,0,0,1,99.648,6.118Z" transform="translate(-48.87)"/>
    <path id="Path_135" data-name="Path 135" d="M70.222,189.393l-4.671-7.181A14.865,14.865,0,0,0,64.7,178H36.3a14.816,14.816,0,0,0,8.65,18.9v7.117a1.207,1.207,0,0,0,1.19,1.224H59.7a1.208,1.208,0,0,0,1.19-1.224v-6.281h3.491a1.208,1.208,0,0,0,1.19-1.224V191.3h3.657A1.226,1.226,0,0,0,70.222,189.393Z" transform="translate(0 -164.625)"/>
  </g>
</svg>
