<svg xmlns="http://www.w3.org/2000/svg" width="79.195" height="59.161" viewBox="0 0 79.195 59.161">
  <g id="game-controller" transform="translate(-0.001 -64.764)">
    <path id="Path_99" data-name="Path 99" d="M149.026,239.71a4.8,4.8,0,1,0,4.8,4.8A4.81,4.81,0,0,0,149.026,239.71Zm0,7.285a2.48,2.48,0,1,1,2.48-2.48A2.483,2.483,0,0,1,149.026,246.995Z" transform="translate(-121.912 -147.885)" fill="#232323"/>
    <path id="Path_100" data-name="Path 100" d="M305.657,244.514a4.8,4.8,0,1,0,4.8-4.8A4.81,4.81,0,0,0,305.657,244.514Zm4.8-2.48a2.48,2.48,0,1,1-2.48,2.48A2.483,2.483,0,0,1,310.461,242.035Z" transform="translate(-258.377 -147.885)" fill="#232323"/>
    <path id="Path_101" data-name="Path 101" d="M94.041,112.978l-5.24-31.2q-.005-.03-.012-.059A14.477,14.477,0,0,0,79.95,70.408V68.251a3.491,3.491,0,0,0-3.487-3.487H72.08a3.491,3.491,0,0,0-3.487,3.487v2.334a14.39,14.39,0,0,0-4.216,2.891h-19.6a14.39,14.39,0,0,0-4.216-2.891V68.251a3.491,3.491,0,0,0-3.487-3.487H32.687A3.491,3.491,0,0,0,29.2,68.251v2.157a14.477,14.477,0,0,0-8.839,11.305c0,.02-.008.04-.012.06L17.734,96.927a1.162,1.162,0,1,0,2.293.385l2.6-15.058a1.163,1.163,0,0,0,.025-.13,12.147,12.147,0,0,1,12-10.473,11.986,11.986,0,0,1,8.471,3.464V76.7a4.267,4.267,0,0,0,4.262,4.262h4.866a1.162,1.162,0,1,0,0-2.325H47.385A1.939,1.939,0,0,1,45.447,76.7v-.9H63.7v.9a1.939,1.939,0,0,1-1.937,1.937H56.9a1.162,1.162,0,1,0,0,2.325h4.866A4.267,4.267,0,0,0,66.028,76.7V75.117A11.986,11.986,0,0,1,74.5,71.652a12.147,12.147,0,0,1,12,10.473,1.137,1.137,0,0,0,.025.128l5.224,31.11a7.069,7.069,0,0,1-13.672,3.421l-1.07-3.186a1.162,1.162,0,0,0-2.2.74l1.07,3.186a9.393,9.393,0,0,0,18.168-4.546Zm-62.516-43.3V68.251a1.164,1.164,0,0,1,1.162-1.162H37.07a1.164,1.164,0,0,1,1.162,1.162v1.522a14.551,14.551,0,0,0-3.581-.445,14.315,14.315,0,0,0-3.127.347Zm39.393.1V68.251a1.164,1.164,0,0,1,1.162-1.162h4.383a1.164,1.164,0,0,1,1.162,1.162v1.424a14.315,14.315,0,0,0-3.127-.347A14.551,14.551,0,0,0,70.918,69.773Z" transform="translate(-14.976)" fill="#232323"/>
    <path id="Path_102" data-name="Path 102" d="M61.941,281.177l-3.458-10.482a1.162,1.162,0,0,0-1.787-.569,7.337,7.337,0,0,1-9.611-.849,1.162,1.162,0,0,0-.838-.357H32.95a1.163,1.163,0,0,0-.838.357,7.337,7.337,0,0,1-9.611.849,1.162,1.162,0,0,0-1.786.569L16.1,284.442a7.069,7.069,0,0,1-13.672-3.421l2.782-16.566a1.162,1.162,0,0,0-2.293-.385L.134,280.636A9.393,9.393,0,0,0,18.3,285.182l4.153-12.366a9.669,9.669,0,0,0,10.972-1.571H45.771a9.669,9.669,0,0,0,10.972,1.571l2.994,9.1a1.162,1.162,0,1,0,2.2-.74Z" transform="translate(0 -167.657)" fill="#232323"/>
    <path id="Path_103" data-name="Path 103" d="M86.706,140.968a3.632,3.632,0,0,0-3.628,3.628v.263h-.263a3.628,3.628,0,1,0,0,7.257h.263v.263a3.628,3.628,0,1,0,7.257,0v-.263H90.6a3.628,3.628,0,1,0,0-7.257h-.263V144.6A3.633,3.633,0,0,0,86.706,140.968Zm3.891,6.216a1.3,1.3,0,1,1,0,2.607H89.172a1.162,1.162,0,0,0-1.162,1.162v1.426a1.3,1.3,0,0,1-2.607,0v-1.426a1.162,1.162,0,0,0-1.162-1.162H82.814a1.3,1.3,0,1,1,0-2.607H84.24a1.162,1.162,0,0,0,1.162-1.162V144.6a1.3,1.3,0,0,1,2.607,0v1.426a1.162,1.162,0,0,0,1.162,1.162Z" transform="translate(-66.936 -64.417)" fill="#232323"/>
    <path id="Path_104" data-name="Path 104" d="M370.8,130.706a3.394,3.394,0,1,0,3.394,3.394A3.4,3.4,0,0,0,370.8,130.706Zm0,4.464a1.07,1.07,0,1,1,1.07-1.07A1.071,1.071,0,0,1,370.8,135.17Z" transform="translate(-310.571 -55.742)" fill="#232323"/>
    <path id="Path_105" data-name="Path 105" d="M370.8,204.572a3.394,3.394,0,1,0,3.394,3.394,3.4,3.4,0,0,0-3.394-3.394Zm0,4.464a1.07,1.07,0,1,1,1.07-1.07A1.071,1.071,0,0,1,370.8,209.036Z" transform="translate(-310.571 -118.183)" fill="#232323"/>
    <path id="Path_106" data-name="Path 106" d="M411.124,171.033a3.394,3.394,0,1,0-3.394,3.394A3.4,3.4,0,0,0,411.124,171.033Zm-4.464,0a1.07,1.07,0,1,1,1.07,1.07A1.071,1.071,0,0,1,406.66,171.033Z" transform="translate(-341.791 -86.962)" fill="#232323"/>
    <path id="Path_107" data-name="Path 107" d="M330.469,171.033a3.394,3.394,0,1,0,3.394-3.394A3.4,3.4,0,0,0,330.469,171.033Zm4.464,0a1.07,1.07,0,1,1-1.07-1.07A1.071,1.071,0,0,1,334.933,171.033Z" transform="translate(-279.351 -86.962)" fill="#232323"/>
    <path id="Path_108" data-name="Path 108" d="M208.448,205.977a1.162,1.162,0,0,0,0-2.324h-3.479a1.162,1.162,0,0,0,0,2.324Z" transform="translate(-172.281 -117.406)" fill="#232323"/>
    <path id="Path_109" data-name="Path 109" d="M275.315,203.653h-3.479a1.162,1.162,0,0,0,0,2.324h3.479a1.162,1.162,0,1,0,0-2.324Z" transform="translate(-228.805 -117.406)" fill="#232323"/>
  </g>
</svg>
