<svg xmlns="http://www.w3.org/2000/svg" width="35" height="23.892" viewBox="0 0 35 23.892">
  <path id="letter" d="M30.833-5.582H4.167A4.168,4.168,0,0,0,0-1.415V14.143a4.168,4.168,0,0,0,4.167,4.167H30.833A4.168,4.168,0,0,0,35,14.143V-1.415A4.168,4.168,0,0,0,30.833-5.582ZM4.167-3.915H30.833a2.51,2.51,0,0,1,2.458,2.033L17.5,6.918,1.708-1.882A2.51,2.51,0,0,1,4.167-3.915Zm26.667,20.55H4.167a2.508,2.508,0,0,1-2.5-2.5V0L17.092,8.6a.878.878,0,0,0,.408.109.79.79,0,0,0,.408-.109L33.333,0V14.135A2.5,2.5,0,0,1,30.833,16.635Zm0,0" transform="translate(0 5.582)"/>
</svg>
