<svg xmlns="http://www.w3.org/2000/svg" width="35" height="41.835" viewBox="0 0 35 41.835">
  <g id="user_1_" data-name="user (1)" transform="translate(0)">
    <path id="Path_138" data-name="Path 138" d="M97.157,20.152a9.821,9.821,0,0,0,7.159-2.952,9.727,9.727,0,0,0,2.966-7.124,9.727,9.727,0,0,0-2.966-7.124A10.157,10.157,0,0,0,90,2.952a9.726,9.726,0,0,0-2.966,7.124A9.727,9.727,0,0,0,90,17.2,9.824,9.824,0,0,0,97.157,20.152ZM91.74,4.685a7.685,7.685,0,0,1,10.833,0,7.267,7.267,0,0,1,2.245,5.391,7.267,7.267,0,0,1-2.245,5.391,7.684,7.684,0,0,1-10.833,0A7.266,7.266,0,0,1,89.5,10.076,7.266,7.266,0,0,1,91.74,4.685Zm0,0" transform="translate(-79.921)"/>
    <path id="Path_139" data-name="Path 139" d="M34.915,259.277a24.822,24.822,0,0,0-.34-2.643,20.778,20.778,0,0,0-.652-2.658,13.11,13.11,0,0,0-1.1-2.479,9.347,9.347,0,0,0-1.652-2.147,7.287,7.287,0,0,0-2.373-1.487,8.222,8.222,0,0,0-3.03-.547,3.08,3.08,0,0,0-1.642.695c-.492.32-1.068.69-1.711,1.1a9.817,9.817,0,0,1-2.214.973,8.618,8.618,0,0,1-5.415,0,9.787,9.787,0,0,1-2.212-.972c-.637-.406-1.213-.776-1.712-1.1a3.077,3.077,0,0,0-1.642-.695,8.212,8.212,0,0,0-3.029.547,7.281,7.281,0,0,0-2.374,1.487A9.349,9.349,0,0,0,2.171,251.5a13.135,13.135,0,0,0-1.1,2.479,20.829,20.829,0,0,0-.652,2.657,24.653,24.653,0,0,0-.34,2.644c-.056.8-.084,1.63-.084,2.47A6.937,6.937,0,0,0,2.069,267,7.459,7.459,0,0,0,7.4,268.943H27.6A7.46,7.46,0,0,0,32.931,267,6.934,6.934,0,0,0,35,261.748c0-.843-.029-1.674-.085-2.471Zm-3.679,5.951a5.023,5.023,0,0,1-3.636,1.264H7.4a5.023,5.023,0,0,1-3.636-1.263,4.529,4.529,0,0,1-1.306-3.48c0-.784.026-1.558.078-2.3a22.236,22.236,0,0,1,.307-2.381,18.371,18.371,0,0,1,.573-2.343,10.694,10.694,0,0,1,.892-2.016,6.93,6.93,0,0,1,1.214-1.587,4.834,4.834,0,0,1,1.579-.979,5.671,5.671,0,0,1,1.936-.372c.086.046.239.133.488.294.505.328,1.088.7,1.732,1.113a12.2,12.2,0,0,0,2.778,1.238,11.081,11.081,0,0,0,6.927,0,12.21,12.21,0,0,0,2.78-1.239c.659-.42,1.225-.784,1.731-1.113.248-.161.4-.249.488-.294a5.675,5.675,0,0,1,1.937.372,4.841,4.841,0,0,1,1.579.979,6.91,6.91,0,0,1,1.214,1.587,10.657,10.657,0,0,1,.892,2.015,18.328,18.328,0,0,1,.574,2.343,22.422,22.422,0,0,1,.307,2.381h0c.052.74.078,1.514.079,2.3a4.529,4.529,0,0,1-1.306,3.479Zm0,0" transform="translate(0 -227.108)"/>
  </g>
</svg>
