<svg xmlns="http://www.w3.org/2000/svg" width="36" height="47.97" viewBox="0 0 36 47.97">
  <g id="curriculum-vitae" transform="translate(-83.374 -79.317)">
    <g id="Group_86" data-name="Group 86" transform="translate(83.874 79.817)">
      <g id="Group_85" data-name="Group 85" transform="translate(0 0)">
        <path id="Path_140" data-name="Path 140" d="M111.32,79.817H83.874v46.97h35V79.817Zm-27.446,40.3v-40.3h0Zm31.737,3.409H87.137V83.08h28.475Zm3.263-3.853V79.817h0Z" transform="translate(-83.874 -79.817)" stroke="#fff" stroke-width="1"/>
      </g>
    </g>
    <g id="Group_88" data-name="Group 88" transform="translate(90.727 103.392)">
      <g id="Group_87" data-name="Group 87" transform="translate(0 0)">
        <rect id="Rectangle_71" data-name="Rectangle 71" width="21.295" height="3.265" stroke="#fff" stroke-width="1"/>
      </g>
    </g>
    <g id="Group_90" data-name="Group 90" transform="translate(90.727 109.194)">
      <g id="Group_89" data-name="Group 89" transform="translate(0 0)">
        <rect id="Rectangle_72" data-name="Rectangle 72" width="21.295" height="3.265" stroke="#fff" stroke-width="1"/>
      </g>
    </g>
    <g id="Group_92" data-name="Group 92" transform="translate(90.727 114.997)">
      <g id="Group_91" data-name="Group 91" transform="translate(0)">
        <rect id="Rectangle_73" data-name="Rectangle 73" width="21.295" height="3.265" stroke="#fff" stroke-width="1"/>
      </g>
    </g>
    <g id="Group_94" data-name="Group 94" transform="translate(90.741 88.118)">
      <g id="Group_93" data-name="Group 93" transform="translate(0)">
        <path id="Path_141" data-name="Path 141" d="M152.984,164.161a2.576,2.576,0,0,1,0-5.142,2.778,2.778,0,0,1,2.248,1.2l2.189-1.954a5.556,5.556,0,0,0-4.613-2.057c-3.306,0-5.73,2.218-5.73,5.377s2.424,5.377,5.73,5.377a5.556,5.556,0,0,0,4.613-2.057l-2.189-1.954A2.779,2.779,0,0,1,152.984,164.161Z" transform="translate(-147.078 -156.213)" stroke="#fff" stroke-width="1"/>
      </g>
    </g>
    <g id="Group_96" data-name="Group 96" transform="translate(100.955 88.353)">
      <g id="Group_95" data-name="Group 95" transform="translate(0 0)">
        <path id="Path_142" data-name="Path 142" d="M249.8,158.373l-2.512,6.009-2.454-6.009H241.1l4.349,10.284h3.409l4.349-10.284Z" transform="translate(-241.102 -158.373)" stroke="#fff" stroke-width="1"/>
      </g>
    </g>
  </g>
</svg>
