<svg xmlns="http://www.w3.org/2000/svg" width="35" height="40.618" viewBox="0 0 35 40.618">
  <g id="experience" transform="translate(-35.405)">
    <path id="Path_132" data-name="Path 132" d="M70.2,25.2l-4.67-6.983a14.171,14.171,0,0,0-.917-4.284,1.19,1.19,0,0,0-1.111-.764H62.253V9.52a1.19,1.19,0,0,0-1.19-1.19H59.522q-.076-.2-.161-.389l1.09-1.09a1.19,1.19,0,0,0,0-1.683L57.085,1.8a1.19,1.19,0,0,0-1.683,0l-1.09,1.09q-.193-.085-.389-.161V1.19A1.19,1.19,0,0,0,52.733,0h-4.76a1.19,1.19,0,0,0-1.19,1.19V2.731q-.2.076-.389.161L45.3,1.8a1.19,1.19,0,0,0-1.683,0L40.256,5.168a1.19,1.19,0,0,0,0,1.683l1.09,1.09q-.085.193-.161.389H39.644a1.19,1.19,0,0,0-1.19,1.19v3.649h-.992a1.19,1.19,0,0,0-1.111.765,14.291,14.291,0,0,0,8.58,18.572v6.922a1.19,1.19,0,0,0,1.19,1.19H59.686a1.19,1.19,0,0,0,1.19-1.19V33.319h3.491a1.19,1.19,0,0,0,1.19-1.19V27.052h3.657A1.191,1.191,0,0,0,70.2,25.2ZM40.834,10.71h1.2a1.19,1.19,0,0,0,1.144-.863,7.414,7.414,0,0,1,.649-1.565,1.19,1.19,0,0,0-.2-1.42L42.78,6.01l1.683-1.683.852.852a1.19,1.19,0,0,0,1.42.2A7.417,7.417,0,0,1,48.3,4.729a1.19,1.19,0,0,0,.863-1.144V2.38h2.38v1.2a1.19,1.19,0,0,0,.863,1.144,7.413,7.413,0,0,1,1.565.649,1.19,1.19,0,0,0,1.42-.2l.852-.852L57.926,6.01l-.853.852a1.19,1.19,0,0,0-.2,1.42,7.416,7.416,0,0,1,.649,1.565,1.19,1.19,0,0,0,1.144.863h1.2v2.459H54.941a4.759,4.759,0,1,0-9.174,0H40.834V10.71Zm7.507,2.459a2.379,2.379,0,1,1,4.025,0Zm16.026,11.5a1.19,1.19,0,0,0-1.19,1.19v5.077H59.686a1.19,1.19,0,0,0-1.19,1.19v6.108H47.31v-6.6a1.19,1.19,0,0,0-.866-1.145A11.933,11.933,0,0,1,38.31,15.549H62.656a11.841,11.841,0,0,1,.513,3.092c.019.6.109.378,3.817,6.031Z"/>
  </g>
</svg>
