<svg xmlns="http://www.w3.org/2000/svg" width="60.621" height="60" viewBox="0 0 60.621 60">
  <g id="Group_80" data-name="Group 80" transform="translate(-540 -2712)">
    <path id="Path_110" data-name="Path 110" d="M120,264h3.027v2.018H120Z" transform="translate(433.119 2479.019)" fill="#232323"/>
    <path id="Path_111" data-name="Path 111" d="M176,304h3.027v2.018H176Z" transform="translate(384.182 2444.012)" fill="#232323"/>
    <path id="Path_112" data-name="Path 112" d="M120,304h5.046v2.018H120Z" transform="translate(433.119 2444.012)" fill="#232323"/>
    <path id="Path_113" data-name="Path 113" d="M56,304h6.055v2.018H56Z" transform="translate(489.045 2444.012)" fill="#232323"/>
    <path id="Path_114" data-name="Path 114" d="M104,344h12.109v2.018H104Z" transform="translate(447.1 2409.005)" fill="#232323"/>
    <path id="Path_115" data-name="Path 115" d="M56,344h4.036v2.018H56Z" transform="translate(489.045 2409.005)" fill="#232323"/>
    <path id="Path_116" data-name="Path 116" d="M152,384h6.055v2.018H152Z" transform="translate(405.155 2373.998)" fill="#232323"/>
    <path id="Path_117" data-name="Path 117" d="M56,384H66.091v2.018H56Z" transform="translate(489.045 2373.998)" fill="#232323"/>
    <path id="Path_118" data-name="Path 118" d="M104,424h6.055v2.018H104Z" transform="translate(447.1 2338.918)" fill="#232323"/>
    <path id="Path_119" data-name="Path 119" d="M56,424h4.036v2.018H56Z" transform="translate(489.045 2338.918)" fill="#232323"/>
    <path id="Path_120" data-name="Path 120" d="M74.529,212.036a1.009,1.009,0,0,0-1.009-1.009H67.465a1.009,1.009,0,0,0-1.009,1.009v5.046H61.411a1.009,1.009,0,0,0-1.009,1.009v5.046H55.356a1.009,1.009,0,0,0-1.009,1.009v5.046H49.3a1.009,1.009,0,0,0-1.009,1.009v6.055H41.055a3.027,3.027,0,1,0,0,2.018h1.183V241.3a1.01,1.01,0,0,1-1.009,1.009h-22.2a1.01,1.01,0,0,1-1.009-1.009v-23.21h5.046a3.031,3.031,0,0,0,3.027-3.027v-5.046H41.228a1.01,1.01,0,0,1,1.009,1.009v1.009h2.018v-1.009A3.031,3.031,0,0,0,41.228,208H25.918a3.008,3.008,0,0,0-2.141.887l-6.891,6.891A3.008,3.008,0,0,0,16,217.918V241.3a3.031,3.031,0,0,0,3.027,3.027h22.2a3.031,3.031,0,0,0,3.027-3.027v-3.027H76.547v-2.018H74.529Zm-50.456-.591v3.618a1.01,1.01,0,0,1-1.009,1.009H19.445ZM38.2,238.274a1.009,1.009,0,1,1,1.009-1.009A1.009,1.009,0,0,1,38.2,238.274ZM50.31,231.21h4.036v5.046H50.31Zm6.055-6.055H60.4v11.1H56.365ZM62.42,219.1h4.037v17.155H62.42Zm6.055,17.155v-23.21h4.036v23.21Z" transform="translate(524 2527.672)" fill="#232323"/>
    <path id="Path_121" data-name="Path 121" d="M19.027,76.173a3.027,3.027,0,0,0,2.732-4.332l3.028-3.028a3.026,3.026,0,0,0,4.158-1.722h4.384a3.027,3.027,0,0,0,5.839-.509l5.7-4.885a3.027,3.027,0,1,0-1.373-1.482l-4.828,4.138a3.025,3.025,0,0,0-5.337.719H28.945a3.027,3.027,0,1,0-5.585,2.314l-3.028,3.028a3.027,3.027,0,1,0-1.3,5.759ZM46.273,58.008a1.009,1.009,0,1,1-1.009,1.009,1.009,1.009,0,0,1,1.009-1.009ZM36.182,65.072a1.009,1.009,0,1,1-1.009,1.009,1.009,1.009,0,0,1,1.009-1.009Zm-10.091,0a1.009,1.009,0,1,1-1.009,1.009A1.009,1.009,0,0,1,26.091,65.072Zm-7.064,7.064a1.009,1.009,0,1,1-1.009,1.009A1.009,1.009,0,0,1,19.027,72.136Z" transform="translate(524 2661.117)" fill="#232323"/>
    <path id="Path_122" data-name="Path 122" d="M181.385,39.176l-6.67,6.67h-8.838a3.027,3.027,0,1,0,0,2.018h2.192V66.029h2.018V47.865h5.046a1.009,1.009,0,0,0,.714-.3l7.283-7.283a13.154,13.154,0,1,0-1.744-1.11Zm-18.362,8.688a1.009,1.009,0,1,1,1.009-1.009A1.009,1.009,0,0,1,163.024,47.865Zm34.332-11.586L191.508,29.7h8.807A11.063,11.063,0,0,1,197.355,36.279Zm2.959-8.6H190.27V17.637a11.119,11.119,0,0,1,10.045,10.045ZM188.252,17.637V28.691a1,1,0,0,0,.256.67h0l7.341,8.259a11.1,11.1,0,1,1-7.6-19.983Z" transform="translate(398.168 2696.489)" fill="#232323"/>
  </g>
</svg>
