<svg xmlns="http://www.w3.org/2000/svg" width="35" height="35.003" viewBox="0 0 35 35.003">
  <path id="home" d="M34.56,15.224l0,0L20.279.943a3.222,3.222,0,0,0-4.557,0L1.45,15.214l-.014.015a3.221,3.221,0,0,0,2.144,5.49c.033,0,.066,0,.1,0h.569V31.231A3.776,3.776,0,0,0,8.02,35h5.586a1.026,1.026,0,0,0,1.025-1.025V25.739a1.723,1.723,0,0,1,1.721-1.721h3.295a1.722,1.722,0,0,1,1.721,1.721v8.238A1.026,1.026,0,0,0,22.394,35H27.98a3.776,3.776,0,0,0,3.772-3.771V20.724h.528a3.223,3.223,0,0,0,2.281-5.5ZM33.108,18.33a1.164,1.164,0,0,1-.828.343H30.726A1.025,1.025,0,0,0,29.7,19.7V31.232a1.722,1.722,0,0,1-1.721,1.72H23.419V25.739a3.776,3.776,0,0,0-3.772-3.772H16.353a3.776,3.776,0,0,0-3.772,3.772v7.213H8.02A1.723,1.723,0,0,1,6.3,31.232V19.7a1.025,1.025,0,0,0-1.025-1.025H3.747l-.048,0a1.17,1.17,0,0,1-.807-2h0L17.172,2.394a1.171,1.171,0,0,1,1.656,0L33.1,16.668l.007.006a1.174,1.174,0,0,1,0,1.655Zm0,0" transform="translate(-0.5 0)"/>
</svg>
