<svg id="user" xmlns="http://www.w3.org/2000/svg" width="35" height="41.951" viewBox="0 0 35 41.951">
  <path id="Path_136" data-name="Path 136" d="M97.118,20.256a9.739,9.739,0,0,0,7.132-2.967,9.82,9.82,0,0,0,2.955-7.161,9.822,9.822,0,0,0-2.955-7.161,10.055,10.055,0,0,0-14.263,0,9.821,9.821,0,0,0-2.955,7.161,9.82,9.82,0,0,0,2.955,7.161A9.742,9.742,0,0,0,97.118,20.256Zm0,0" transform="translate(-79.884)"/>
  <path id="Path_137" data-name="Path 137" d="M34.915,259.339a25.072,25.072,0,0,0-.34-2.657,20.975,20.975,0,0,0-.652-2.672,13.212,13.212,0,0,0-1.1-2.492,9.4,9.4,0,0,0-1.652-2.158,7.282,7.282,0,0,0-2.373-1.495,8.185,8.185,0,0,0-3.03-.55,3.071,3.071,0,0,0-1.642.7c-.492.322-1.068.694-1.711,1.106a9.793,9.793,0,0,1-2.214.978,8.576,8.576,0,0,1-5.415,0,9.769,9.769,0,0,1-2.212-.977c-.637-.408-1.213-.78-1.712-1.106a3.067,3.067,0,0,0-1.642-.7,8.175,8.175,0,0,0-3.029.55,7.276,7.276,0,0,0-2.374,1.495,9.4,9.4,0,0,0-1.652,2.158,13.238,13.238,0,0,0-1.1,2.492,21.026,21.026,0,0,0-.652,2.671,24.985,24.985,0,0,0-.34,2.658c-.056.8-.084,1.64-.084,2.483a6.991,6.991,0,0,0,2.069,5.283A7.437,7.437,0,0,0,7.4,269.055H27.6a7.436,7.436,0,0,0,5.331-1.949A6.988,6.988,0,0,0,35,261.823c0-.847-.029-1.683-.085-2.484Zm0,0" transform="translate(0 -227.104)"/>
</svg>
