<svg id="browser" xmlns="http://www.w3.org/2000/svg" width="60" height="60" viewBox="0 0 60 60">
  <g id="Group_37" data-name="Group 37" transform="translate(4.972 17.052)">
    <g id="Group_36" data-name="Group 36">
      <path id="Path_66" data-name="Path 66" d="M91.722,145.067H43.668a1,1,0,0,0-1,.994v18.892a1,1,0,0,0,1,.994H91.722a1,1,0,0,0,1-.994V146.061A1,1,0,0,0,91.722,145.067Zm-1,18.892H44.669v-16.9H90.721v16.9Z" transform="translate(-42.667 -145.067)" fill="#232323"/>
    </g>
  </g>
  <g id="Group_39" data-name="Group 39" transform="translate(20.012 27.017)">
    <g id="Group_38" data-name="Group 38">
      <path id="Path_67" data-name="Path 67" d="M176.339,230.689a.993.993,0,0,0-1.406,0l-3.977,3.977a.994.994,0,1,0,1.406,1.406l3.977-3.977A.993.993,0,0,0,176.339,230.689Z" transform="translate(-170.664 -230.397)" fill="#232323"/>
    </g>
  </g>
  <g id="Group_41" data-name="Group 41" transform="translate(24.015 27.017)">
    <g id="Group_40" data-name="Group 40">
      <path id="Path_68" data-name="Path 68" d="M210.472,234.666l-3.977-3.977a.994.994,0,0,0-1.406,1.406l3.977,3.977a.994.994,0,0,0,1.406-1.406Z" transform="translate(-204.797 -230.397)" fill="#232323"/>
    </g>
  </g>
  <g id="Group_43" data-name="Group 43" transform="translate(26.016 25.015)">
    <g id="Group_42" data-name="Group 42">
      <path id="Path_69" data-name="Path 69" d="M227.539,213.623a.993.993,0,0,0-1.406,0l-3.977,3.977a.994.994,0,1,0,1.406,1.406l3.977-3.977A.993.993,0,0,0,227.539,213.623Z" transform="translate(-221.864 -213.331)" fill="#232323"/>
    </g>
  </g>
  <g id="Group_45" data-name="Group 45" transform="translate(30.019 25.015)">
    <g id="Group_44" data-name="Group 44">
      <path id="Path_70" data-name="Path 70" d="M261.674,217.6l-3.977-3.977a.994.994,0,0,0-1.406,1.406l3.977,3.977a.994.994,0,0,0,1.406-1.406Z" transform="translate(-255.999 -213.331)" fill="#232323"/>
    </g>
  </g>
  <g id="Group_47" data-name="Group 47">
    <g id="Group_46" data-name="Group 46">
      <path id="Path_71" data-name="Path 71" d="M55.5,0H4.5A4.506,4.506,0,0,0,0,4.5v51A4.506,4.506,0,0,0,4.5,60h51A4.506,4.506,0,0,0,60,55.5V4.5A4.506,4.506,0,0,0,55.5,0ZM58,55.5A2.5,2.5,0,0,1,55.5,58H4.5A2.5,2.5,0,0,1,2,55.5V4.5A2.5,2.5,0,0,1,4.5,2h51A2.5,2.5,0,0,1,58,4.5Z" fill="#232323"/>
    </g>
  </g>
  <g id="Group_49" data-name="Group 49" transform="translate(3.977 3.977)">
    <g id="Group_48" data-name="Group 48">
      <path id="Path_72" data-name="Path 72" d="M39.106,34.133H35.128a.994.994,0,0,0-.994.994V39.1a.994.994,0,0,0,.994.994h3.977A.994.994,0,0,0,40.1,39.1V35.127A.994.994,0,0,0,39.106,34.133Zm-.994,3.977H36.123V36.122h1.989Z" transform="translate(-34.134 -34.133)" fill="#232323"/>
    </g>
  </g>
  <g id="Group_51" data-name="Group 51" transform="translate(12.008 3.977)">
    <g id="Group_50" data-name="Group 50">
      <path id="Path_73" data-name="Path 73" d="M107.373,34.133H103.4a.994.994,0,0,0-.994.994V39.1a.994.994,0,0,0,.994.994h3.977a.994.994,0,0,0,.994-.994V35.127A.994.994,0,0,0,107.373,34.133Zm-.994,3.977h-1.989V36.122h1.989Z" transform="translate(-102.401 -34.133)" fill="#232323"/>
    </g>
  </g>
  <g id="Group_53" data-name="Group 53" transform="translate(20.013 3.977)">
    <g id="Group_52" data-name="Group 52">
      <path id="Path_74" data-name="Path 74" d="M175.639,34.133h-3.977a.994.994,0,0,0-.994.994V39.1a.994.994,0,0,0,.994.994h3.977a.994.994,0,0,0,.994-.994V35.127A.994.994,0,0,0,175.639,34.133Zm-.994,3.977h-1.989V36.122h1.989Z" transform="translate(-170.667 -34.133)" fill="#232323"/>
    </g>
  </g>
  <g id="Group_55" data-name="Group 55" transform="translate(36.023 21.013)">
    <g id="Group_54" data-name="Group 54">
      <path id="Path_75" data-name="Path 75" d="M311.154,179.2h-1.943a2.013,2.013,0,0,0-2.012,2.012v1.944a2.013,2.013,0,0,0,2.012,2.01h1.943a2.013,2.013,0,0,0,2.012-2.012v-1.944A2.013,2.013,0,0,0,311.154,179.2Zm.023,3.956a.023.023,0,0,1-.023.022l-1.966-.022.023-1.967,1.966.023Z" transform="translate(-307.2 -179.2)" fill="#232323"/>
    </g>
  </g>
  <g id="Group_57" data-name="Group 57">
    <g id="Group_56" data-name="Group 56">
      <path id="Path_76" data-name="Path 76" d="M55.5,0H4.5A4.493,4.493,0,0,0,0,4.475v8.452a1,1,0,0,0,1,.994H59a1,1,0,0,0,1-.994V4.475A4.493,4.493,0,0,0,55.5,0ZM58,11.932H2V4.475A2.5,2.5,0,0,1,4.5,1.989h51A2.5,2.5,0,0,1,58,4.475Z" fill="#232323"/>
    </g>
  </g>
  <g id="Group_59" data-name="Group 59" transform="translate(4.972 41.008)">
    <g id="Group_58" data-name="Group 58">
      <path id="Path_77" data-name="Path 77" d="M79.457,349.867h-35.8a.994.994,0,0,0,0,1.989h35.8a.994.994,0,0,0,0-1.989Z" transform="translate(-42.667 -349.867)" fill="#232323"/>
    </g>
  </g>
  <g id="Group_61" data-name="Group 61" transform="translate(46.079 41.008)">
    <g id="Group_60" data-name="Group 60">
      <path id="Path_78" data-name="Path 78" d="M400.489,349.867h-6.96a.994.994,0,1,0,0,1.989h6.96a.994.994,0,0,0,0-1.989Z" transform="translate(-392.534 -349.867)" fill="#232323"/>
    </g>
  </g>
  <g id="Group_63" data-name="Group 63" transform="translate(17.243 45.009)">
    <g id="Group_62" data-name="Group 62">
      <path id="Path_79" data-name="Path 79" d="M181.857,384h-35.8a.994.994,0,1,0,0,1.989h35.8a.994.994,0,1,0,0-1.989Z" transform="translate(-145.067 -384)" fill="#232323"/>
    </g>
  </g>
  <g id="Group_65" data-name="Group 65" transform="translate(4.972 45.009)">
    <g id="Group_64" data-name="Group 64">
      <path id="Path_80" data-name="Path 80" d="M50.622,384h-6.96a.994.994,0,1,0,0,1.989h6.96a.994.994,0,1,0,0-1.989Z" transform="translate(-42.667 -384)" fill="#232323"/>
    </g>
  </g>
  <g id="Group_67" data-name="Group 67" transform="translate(4.972 49.062)">
    <g id="Group_66" data-name="Group 66">
      <path id="Path_81" data-name="Path 81" d="M79.457,418.133h-35.8a.994.994,0,0,0,0,1.989h35.8a.994.994,0,0,0,0-1.989Z" transform="translate(-42.667 -418.133)" fill="#232323"/>
    </g>
  </g>
  <g id="Group_69" data-name="Group 69" transform="translate(46.079 49.062)">
    <g id="Group_68" data-name="Group 68">
      <path id="Path_82" data-name="Path 82" d="M400.489,418.133h-6.96a.994.994,0,1,0,0,1.989h6.96a.994.994,0,0,0,0-1.989Z" transform="translate(-392.534 -418.133)" fill="#232323"/>
    </g>
  </g>
  <g id="Group_71" data-name="Group 71" transform="translate(17.243 53.04)">
    <g id="Group_70" data-name="Group 70">
      <path id="Path_83" data-name="Path 83" d="M181.857,452.267h-35.8a.994.994,0,1,0,0,1.989h35.8a.994.994,0,1,0,0-1.989Z" transform="translate(-145.067 -452.267)" fill="#232323"/>
    </g>
  </g>
  <g id="Group_73" data-name="Group 73" transform="translate(4.972 53.04)">
    <g id="Group_72" data-name="Group 72">
      <path id="Path_84" data-name="Path 84" d="M50.622,452.267h-6.96a.994.994,0,1,0,0,1.989h6.96a.994.994,0,1,0,0-1.989Z" transform="translate(-42.667 -452.267)" fill="#232323"/>
    </g>
  </g>
</svg>
