<svg id="Group_31" data-name="Group 31" xmlns="http://www.w3.org/2000/svg" width="29.885" height="32.553" viewBox="0 0 29.885 32.553">
  <g id="Group_30" data-name="Group 30">
    <path id="Path_63" data-name="Path 63" d="M49.351,319.392a.534.534,0,0,0-.534.534v9.646H21.067v-9.646a.534.534,0,1,0-1.067,0v10.18a.534.534,0,0,0,.534.534H49.351a.534.534,0,0,0,.534-.534v-10.18A.534.534,0,0,0,49.351,319.392Z" transform="translate(-20 -298.086)" fill="#fff"/>
    <path id="Path_64" data-name="Path 64" d="M139.186,27.06a.534.534,0,0,0,.755,0h0l6.937-6.937a.534.534,0,0,0-.755-.755L140.1,25.394V.534a.534.534,0,0,0-1.067,0V25.394L133,19.368a.534.534,0,0,0-.755.755Z" transform="translate(-124.621)" fill="#fff"/>
  </g>
</svg>
