<svg xmlns="http://www.w3.org/2000/svg" width="214.568" height="107.297" viewBox="0 0 214.568 107.297">
  <g id="Memphis" transform="translate(-143 -3469)" opacity="0.8">
    <g id="Group_1" data-name="Group 1" transform="translate(-26.908 2787.363)">
      <path id="Path_2" data-name="Path 2" d="M177.935,685.651a4.013,4.013,0,1,1-4.015-4.014,4.013,4.013,0,0,1,4.015,4.014Z" fill="#403a3a"/>
      <path id="Path_3" data-name="Path 3" d="M198.57,685.651a4.014,4.014,0,1,1-4.014-4.014,4.012,4.012,0,0,1,4.014,4.014Z" fill="#403a3a"/>
      <path id="Path_8" data-name="Path 8" d="M177.935,706.286a4.013,4.013,0,1,1-4.015-4.014,4.014,4.014,0,0,1,4.015,4.014Z" fill="#403a3a"/>
      <path id="Path_9" data-name="Path 9" d="M198.57,706.286a4.014,4.014,0,1,1-4.014-4.014,4.013,4.013,0,0,1,4.014,4.014Z" fill="#403a3a"/>
      <path id="Path_14" data-name="Path 14" d="M177.935,726.921a4.013,4.013,0,1,1-4.015-4.014,4.014,4.014,0,0,1,4.015,4.014Z" fill="#403a3a"/>
      <path id="Path_15" data-name="Path 15" d="M198.57,726.921a4.014,4.014,0,1,1-4.014-4.014,4.013,4.013,0,0,1,4.014,4.014Z" fill="#403a3a"/>
    </g>
    <g id="Group_3" data-name="Group 3">
      <g id="Group_2" data-name="Group 2" transform="translate(-26.908 2845.363)">
        <path id="Path_2-2" data-name="Path 2" d="M177.935,685.651a4.013,4.013,0,1,1-4.015-4.014,4.013,4.013,0,0,1,4.015,4.014Z" fill="#403a3a"/>
        <path id="Path_3-2" data-name="Path 3" d="M198.57,685.651a4.014,4.014,0,1,1-4.014-4.014,4.012,4.012,0,0,1,4.014,4.014Z" fill="#403a3a"/>
        <path id="Path_8-2" data-name="Path 8" d="M177.935,706.286a4.013,4.013,0,1,1-4.015-4.014,4.014,4.014,0,0,1,4.015,4.014Z" fill="#403a3a"/>
        <path id="Path_24" data-name="Path 24" d="M177.935,706.286a4.013,4.013,0,1,1-4.015-4.014,4.014,4.014,0,0,1,4.015,4.014Z" transform="translate(124)" fill="#403a3a"/>
        <path id="Path_9-2" data-name="Path 9" d="M198.57,706.286a4.014,4.014,0,1,1-4.014-4.014,4.013,4.013,0,0,1,4.014,4.014Z" fill="#403a3a"/>
        <path id="Path_23" data-name="Path 23" d="M198.57,706.286a4.014,4.014,0,1,1-4.014-4.014,4.013,4.013,0,0,1,4.014,4.014Z" transform="translate(124)" fill="#403a3a"/>
        <path id="Path_10" data-name="Path 10" d="M219.205,706.286a4.013,4.013,0,1,1-4.012-4.014,4.013,4.013,0,0,1,4.012,4.014Z" fill="#403a3a"/>
        <path id="Path_22" data-name="Path 22" d="M219.205,706.286a4.013,4.013,0,1,1-4.012-4.014,4.013,4.013,0,0,1,4.012,4.014Z" transform="translate(124)" fill="#403a3a"/>
        <path id="Path_11" data-name="Path 11" d="M239.84,706.286a4.012,4.012,0,1,1-4.014-4.014,4.013,4.013,0,0,1,4.014,4.014Z" fill="#403a3a"/>
        <path id="Path_21" data-name="Path 21" d="M239.84,706.286a4.012,4.012,0,1,1-4.014-4.014,4.013,4.013,0,0,1,4.014,4.014Z" transform="translate(124)" fill="#403a3a"/>
        <path id="Path_12" data-name="Path 12" d="M260.476,706.286a4.014,4.014,0,1,1-4.014-4.014,4.013,4.013,0,0,1,4.014,4.014Z" fill="#403a3a"/>
        <path id="Path_20" data-name="Path 20" d="M260.476,706.286a4.014,4.014,0,1,1-4.014-4.014,4.013,4.013,0,0,1,4.014,4.014Z" transform="translate(124)" fill="#403a3a"/>
        <path id="Path_13" data-name="Path 13" d="M281.111,706.286a4.013,4.013,0,1,1-4.014-4.014,4.014,4.014,0,0,1,4.014,4.014Z" fill="#403a3a"/>
        <path id="Path_14-2" data-name="Path 14" d="M177.935,726.921a4.013,4.013,0,1,1-4.015-4.014,4.014,4.014,0,0,1,4.015,4.014Z" fill="#403a3a"/>
        <path id="Path_25" data-name="Path 25" d="M177.935,726.921a4.013,4.013,0,1,1-4.015-4.014,4.014,4.014,0,0,1,4.015,4.014Z" transform="translate(124)" fill="#403a3a"/>
        <path id="Path_15-2" data-name="Path 15" d="M198.57,726.921a4.014,4.014,0,1,1-4.014-4.014,4.013,4.013,0,0,1,4.014,4.014Z" fill="#403a3a"/>
        <path id="Path_26" data-name="Path 26" d="M198.57,726.921a4.014,4.014,0,1,1-4.014-4.014,4.013,4.013,0,0,1,4.014,4.014Z" transform="translate(124)" fill="#403a3a"/>
        <path id="Path_16" data-name="Path 16" d="M219.205,726.921a4.013,4.013,0,1,1-4.012-4.014,4.013,4.013,0,0,1,4.012,4.014Z" fill="#403a3a"/>
        <path id="Path_27" data-name="Path 27" d="M219.205,726.921a4.013,4.013,0,1,1-4.012-4.014,4.013,4.013,0,0,1,4.012,4.014Z" transform="translate(124)" fill="#403a3a"/>
        <path id="Path_17" data-name="Path 17" d="M239.84,726.921a4.012,4.012,0,1,1-4.014-4.014,4.013,4.013,0,0,1,4.014,4.014Z" fill="#403a3a"/>
        <path id="Path_28" data-name="Path 28" d="M239.84,726.921a4.012,4.012,0,1,1-4.014-4.014,4.013,4.013,0,0,1,4.014,4.014Z" transform="translate(124)" fill="#403a3a"/>
        <path id="Path_18" data-name="Path 18" d="M260.476,726.921a4.014,4.014,0,1,1-4.014-4.014,4.013,4.013,0,0,1,4.014,4.014Z" fill="#403a3a"/>
        <path id="Path_29" data-name="Path 29" d="M260.476,726.921a4.014,4.014,0,1,1-4.014-4.014,4.013,4.013,0,0,1,4.014,4.014Z" transform="translate(124)" fill="#403a3a"/>
        <path id="Path_19" data-name="Path 19" d="M281.111,726.921a4.013,4.013,0,1,1-4.014-4.014,4.014,4.014,0,0,1,4.014,4.014Z" fill="#403a3a"/>
      </g>
    </g>
  </g>
</svg>
