<svg xmlns="http://www.w3.org/2000/svg" width="214.568" height="107.297" viewBox="0 0 214.568 107.297">
  <g id="Memphis" opacity="0.8">
    <g id="Group_1" data-name="Group 1" transform="translate(185.906 58)">
      <path id="Path_2" data-name="Path 2" d="M169.908,685.65a4.013,4.013,0,1,1,4.015,4.014,4.013,4.013,0,0,1-4.015-4.014Z" transform="translate(-149.273 -640.367)" fill="#403a3a"/>
      <path id="Path_3" data-name="Path 3" d="M190.543,685.65a4.014,4.014,0,1,1,4.014,4.014,4.012,4.012,0,0,1-4.014-4.014Z" transform="translate(-190.543 -640.367)" fill="#403a3a"/>
      <path id="Path_8" data-name="Path 8" d="M169.908,706.285a4.013,4.013,0,1,1,4.015,4.014,4.014,4.014,0,0,1-4.015-4.014Z" transform="translate(-149.273 -681.637)" fill="#403a3a"/>
      <path id="Path_9" data-name="Path 9" d="M190.543,706.285a4.014,4.014,0,1,1,4.014,4.014,4.013,4.013,0,0,1-4.014-4.014Z" transform="translate(-190.543 -681.637)" fill="#403a3a"/>
      <path id="Path_14" data-name="Path 14" d="M169.908,726.92a4.013,4.013,0,1,1,4.015,4.014,4.014,4.014,0,0,1-4.015-4.014Z" transform="translate(-149.273 -722.907)" fill="#403a3a"/>
      <path id="Path_15" data-name="Path 15" d="M190.543,726.92a4.014,4.014,0,1,1,4.014,4.014,4.013,4.013,0,0,1-4.014-4.014Z" transform="translate(-190.543 -722.907)" fill="#403a3a"/>
    </g>
    <g id="Group_3" data-name="Group 3" transform="translate(0 0)">
      <g id="Group_2" data-name="Group 2" transform="translate(0 0)">
        <path id="Path_2-2" data-name="Path 2" d="M169.908,685.65a4.013,4.013,0,1,1,4.015,4.014,4.013,4.013,0,0,1-4.015-4.014Z" transform="translate(36.633 -640.367)" fill="#403a3a"/>
        <path id="Path_3-2" data-name="Path 3" d="M190.543,685.65a4.014,4.014,0,1,1,4.014,4.014,4.012,4.012,0,0,1-4.014-4.014Z" transform="translate(-4.637 -640.367)" fill="#403a3a"/>
        <path id="Path_8-2" data-name="Path 8" d="M169.908,706.285a4.013,4.013,0,1,1,4.015,4.014,4.014,4.014,0,0,1-4.015-4.014Z" transform="translate(36.633 -681.637)" fill="#403a3a"/>
        <path id="Path_24" data-name="Path 24" d="M169.908,706.285a4.013,4.013,0,1,1,4.015,4.014,4.014,4.014,0,0,1-4.015-4.014Z" transform="translate(-87.367 -681.637)" fill="#403a3a"/>
        <path id="Path_9-2" data-name="Path 9" d="M190.543,706.285a4.014,4.014,0,1,1,4.014,4.014,4.013,4.013,0,0,1-4.014-4.014Z" transform="translate(-4.637 -681.637)" fill="#403a3a"/>
        <path id="Path_23" data-name="Path 23" d="M190.543,706.285a4.014,4.014,0,1,1,4.014,4.014,4.013,4.013,0,0,1-4.014-4.014Z" transform="translate(-128.637 -681.637)" fill="#403a3a"/>
        <path id="Path_10" data-name="Path 10" d="M211.179,706.285a4.013,4.013,0,1,1,4.012,4.014,4.013,4.013,0,0,1-4.012-4.014Z" transform="translate(-45.908 -681.637)" fill="#403a3a"/>
        <path id="Path_22" data-name="Path 22" d="M211.179,706.285a4.013,4.013,0,1,1,4.012,4.014,4.013,4.013,0,0,1-4.012-4.014Z" transform="translate(-169.908 -681.637)" fill="#403a3a"/>
        <path id="Path_11" data-name="Path 11" d="M231.815,706.285a4.012,4.012,0,1,1,4.014,4.014,4.013,4.013,0,0,1-4.014-4.014Z" transform="translate(-87.179 -681.637)" fill="#403a3a"/>
        <path id="Path_21" data-name="Path 21" d="M231.815,706.285a4.012,4.012,0,1,1,4.014,4.014,4.013,4.013,0,0,1-4.014-4.014Z" transform="translate(-211.179 -681.637)" fill="#403a3a"/>
        <path id="Path_12" data-name="Path 12" d="M252.448,706.285a4.014,4.014,0,1,1,4.014,4.014,4.013,4.013,0,0,1-4.014-4.014Z" transform="translate(-128.448 -681.637)" fill="#403a3a"/>
        <path id="Path_20" data-name="Path 20" d="M252.448,706.285a4.014,4.014,0,1,1,4.014,4.014,4.013,4.013,0,0,1-4.014-4.014Z" transform="translate(-252.448 -681.637)" fill="#403a3a"/>
        <path id="Path_13" data-name="Path 13" d="M273.084,706.285A4.013,4.013,0,1,1,277.1,710.3a4.014,4.014,0,0,1-4.014-4.014Z" transform="translate(-169.719 -681.637)" fill="#403a3a"/>
        <path id="Path_14-2" data-name="Path 14" d="M169.908,726.92a4.013,4.013,0,1,1,4.015,4.014,4.014,4.014,0,0,1-4.015-4.014Z" transform="translate(36.633 -722.907)" fill="#403a3a"/>
        <path id="Path_25" data-name="Path 25" d="M169.908,726.92a4.013,4.013,0,1,1,4.015,4.014,4.014,4.014,0,0,1-4.015-4.014Z" transform="translate(-87.367 -722.907)" fill="#403a3a"/>
        <path id="Path_15-2" data-name="Path 15" d="M190.543,726.92a4.014,4.014,0,1,1,4.014,4.014,4.013,4.013,0,0,1-4.014-4.014Z" transform="translate(-4.637 -722.907)" fill="#403a3a"/>
        <path id="Path_26" data-name="Path 26" d="M190.543,726.92a4.014,4.014,0,1,1,4.014,4.014,4.013,4.013,0,0,1-4.014-4.014Z" transform="translate(-128.637 -722.907)" fill="#403a3a"/>
        <path id="Path_16" data-name="Path 16" d="M211.179,726.92a4.013,4.013,0,1,1,4.012,4.014,4.013,4.013,0,0,1-4.012-4.014Z" transform="translate(-45.908 -722.907)" fill="#403a3a"/>
        <path id="Path_27" data-name="Path 27" d="M211.179,726.92a4.013,4.013,0,1,1,4.012,4.014,4.013,4.013,0,0,1-4.012-4.014Z" transform="translate(-169.908 -722.907)" fill="#403a3a"/>
        <path id="Path_17" data-name="Path 17" d="M231.815,726.92a4.012,4.012,0,1,1,4.014,4.014,4.013,4.013,0,0,1-4.014-4.014Z" transform="translate(-87.179 -722.907)" fill="#403a3a"/>
        <path id="Path_28" data-name="Path 28" d="M231.815,726.92a4.012,4.012,0,1,1,4.014,4.014,4.013,4.013,0,0,1-4.014-4.014Z" transform="translate(-211.179 -722.907)" fill="#403a3a"/>
        <path id="Path_18" data-name="Path 18" d="M252.448,726.92a4.014,4.014,0,1,1,4.014,4.014,4.013,4.013,0,0,1-4.014-4.014Z" transform="translate(-128.448 -722.907)" fill="#403a3a"/>
        <path id="Path_29" data-name="Path 29" d="M252.448,726.92a4.014,4.014,0,1,1,4.014,4.014,4.013,4.013,0,0,1-4.014-4.014Z" transform="translate(-252.448 -722.907)" fill="#403a3a"/>
        <path id="Path_19" data-name="Path 19" d="M273.084,726.92a4.013,4.013,0,1,1,4.014,4.014,4.014,4.014,0,0,1-4.014-4.014Z" transform="translate(-169.719 -722.907)" fill="#403a3a"/>
      </g>
    </g>
  </g>
</svg>
