<svg xmlns="http://www.w3.org/2000/svg" width="50.667" height="80" viewBox="0 0 50.667 80">
  <g id="smartphone" transform="translate(-88)">
    <g id="Group_74" data-name="Group 74" transform="translate(88)">
      <path id="Path_96" data-name="Path 96" d="M132,0H94.667A6.675,6.675,0,0,0,88,6.667V73.333A6.675,6.675,0,0,0,94.667,80H132a6.675,6.675,0,0,0,6.667-6.667V6.667A6.675,6.675,0,0,0,132,0Zm4,73.333a4,4,0,0,1-4,4H94.667a4,4,0,0,1-4-4V66.667H136ZM136,64H90.667V10.667H136Zm0-56H90.667V6.667a4,4,0,0,1,4-4H132a4,4,0,0,1,4,4Z" transform="translate(-88)" fill="#232323"/>
    </g>
    <g id="Group_77" data-name="Group 77" transform="translate(109.333 68)">
      <g id="Group_76" data-name="Group 76">
        <path id="Path_97" data-name="Path 97" d="M220,408a4,4,0,1,0,4,4A4,4,0,0,0,220,408Zm0,5.333A1.333,1.333,0,1,1,221.333,412,1.333,1.333,0,0,1,220,413.333Z" transform="translate(-216 -408)" fill="#232323"/>
      </g>
    </g>
    <g id="Group_79" data-name="Group 79" transform="translate(110.667 4)">
      <g id="Group_78" data-name="Group 78">
        <path id="Path_98" data-name="Path 98" d="M228,24h-2.667a1.333,1.333,0,0,0,0,2.667H228A1.333,1.333,0,0,0,228,24Z" transform="translate(-224 -24)" fill="#232323"/>
      </g>
    </g>
  </g>
</svg>
