<svg xmlns="http://www.w3.org/2000/svg" width="61.116" height="65" viewBox="0 0 61.116 65">
  <g id="virtual-reality" transform="translate(-0.001 0)">
    <path id="Path_85" data-name="Path 85" d="M262.15,122.691a.453.453,0,0,1-.017-.083c0-.265.39-.448.679-.448.183,0,.323.058.365.216l1.268,4.492,1.26-4.492c.041-.158.183-.216.365-.216.29,0,.68.191.68.448a.354.354,0,0,1-.017.083l-1.591,5.214c-.074.249-.381.365-.7.365a.685.685,0,0,1-.7-.365Zm0,0" transform="translate(-228.891 -106.674)" fill="#232323"/>
    <path id="Path_86" data-name="Path 86" d="M302.431,122.5a.336.336,0,0,1,.348-.331h1.641c1.086,0,1.965.414,1.965,1.732a1.558,1.558,0,0,1-1.086,1.658l1.086,2.014a.223.223,0,0,1,.041.133.7.7,0,0,1-.671.563.424.424,0,0,1-.373-.257l-1.177-2.288h-.7v2.164c0,.224-.265.34-.539.34s-.539-.116-.539-.34V122.5Zm1.077.613v1.765h.912a.883.883,0,1,0,0-1.765Zm0,0" transform="translate(-264.072 -106.677)" fill="#232323"/>
    <path id="Path_87" data-name="Path 87" d="M61.074,61.505l-.543-3.178a.952.952,0,1,0-1.877.321l.543,3.177a1.087,1.087,0,0,1-1.072,1.27H51.451l-1.192-7.325a.952.952,0,0,0-1.88.306L49.522,63.1H11.6l1.142-7.019a.952.952,0,0,0-1.879-.306L9.667,63.1H2.992a1.087,1.087,0,0,1-1.071-1.27l1.3-7.616a7.993,7.993,0,0,1,4.535-5.893A.942.942,0,0,0,8.1,48.17a7.828,7.828,0,0,1,.8-.273l11.427-2.428a18.377,18.377,0,0,0,20.469,0L52.22,47.9A7.985,7.985,0,0,1,57.9,54.21a.952.952,0,1,0,1.877-.321A9.9,9.9,0,0,0,52.7,46.054l-.058-.014L40.79,43.521l-1.148-.244a2.4,2.4,0,0,1-1.565-2.292v-3.3a32.23,32.23,0,0,0,4.362-4.562,12.847,12.847,0,0,0,2.206-6.514l.034-.6h.444a1.8,1.8,0,0,0,1.695-1.194h.978a1.963,1.963,0,0,0,1.961-1.96V14.6a1.963,1.963,0,0,0-1.961-1.961h-.978a1.8,1.8,0,0,0-1.561-1.189,12.619,12.619,0,0,0-3.158-6.8C37.9.069,31.736,0,31.39,0H29.737c-.268,0-6.489.034-10.716,4.648a12.616,12.616,0,0,0-3.159,6.8A1.8,1.8,0,0,0,14.3,12.641h-.978A1.963,1.963,0,0,0,11.358,14.6v3.172H9.875a3.272,3.272,0,0,0-3.269,3.269V46.759a9.906,9.906,0,0,0-5.261,7.13l-1.3,7.616A2.991,2.991,0,0,0,2.992,65H58.125a2.991,2.991,0,0,0,2.949-3.495ZM46.922,14.546h.872a.057.057,0,0,1,.057.057v8.248a.057.057,0,0,1-.057.057h-.872ZM38.268,44.764a16.483,16.483,0,0,1-15.421,0,4.564,4.564,0,0,0,2.1-3.778V39.306a10.1,10.1,0,0,0,1.806,1.237,9.75,9.75,0,0,0,7.615,0,10.092,10.092,0,0,0,1.806-1.237v1.679a4.569,4.569,0,0,0,2.1,3.779ZM20.426,5.935c3.646-3.981,9.251-4.03,9.309-4.03h1.651c.083,0,5.651.039,9.306,4.031a10.688,10.688,0,0,1,2.637,5.513H17.788a10.689,10.689,0,0,1,2.638-5.513ZM16.1,13.352H45.017V24.1H34.424a2.787,2.787,0,0,1-1.442-.4,4.68,4.68,0,0,0-4.851,0,2.787,2.787,0,0,1-1.442.4H24.97a.952.952,0,0,0,0,1.9h1.719a4.691,4.691,0,0,0,2.426-.676,2.782,2.782,0,0,1,2.882,0,4.689,4.689,0,0,0,2.426.676H42.77l-.028.5a10.945,10.945,0,0,1-1.878,5.549,37.452,37.452,0,0,1-7.245,6.739,7.838,7.838,0,0,1-6.121,0,18.9,18.9,0,0,1-2.862-2.235l-.025-.022q-.282-.249-.585-.525a28.744,28.744,0,0,1-3.773-3.957,10.947,10.947,0,0,1-1.879-5.55l-.028-.5h2.188a.952.952,0,1,0,0-1.9H16.1ZM13.263,14.6a.057.057,0,0,1,.057-.057h.872v8.362h-.872a.057.057,0,0,1-.057-.057ZM8.51,21.043a1.366,1.366,0,0,1,1.364-1.364h1.484v3.172a1.963,1.963,0,0,0,1.961,1.961H14.3a1.8,1.8,0,0,0,1.7,1.194h.448l.034.6a12.849,12.849,0,0,0,2.206,6.515,32.229,32.229,0,0,0,4.362,4.562v3.3a2.4,2.4,0,0,1-1.576,2.295l-1.138.242L8.51,46.032Zm0,0" transform="translate(0)" fill="#232323"/>
  </g>
</svg>
