<svg id="web-programming" xmlns="http://www.w3.org/2000/svg" width="68.188" height="60.161" viewBox="0 0 68.188 60.161">
  <path id="Path_88" data-name="Path 88" d="M123.409,195.647a1.121,1.121,0,0,1-.729-.269l-7.285-6.2a1.126,1.126,0,0,1,0-1.714l7.285-6.2a1.125,1.125,0,1,1,1.459,1.714l-6.278,5.346,6.278,5.346a1.126,1.126,0,0,1-.731,1.983Zm0,0" transform="translate(-96.506 -151.882)" fill="#232323"/>
  <path id="Path_89" data-name="Path 89" d="M250.834,195.647a1.126,1.126,0,0,1-.731-1.983l6.278-5.346-6.278-5.346a1.125,1.125,0,0,1,1.459-1.714l7.285,6.2a1.126,1.126,0,0,1,0,1.714l-7.285,6.2A1.121,1.121,0,0,1,250.834,195.647Zm0,0" transform="translate(-209.55 -151.882)" fill="#232323"/>
  <path id="Path_90" data-name="Path 90" d="M190.081,176.832a1.145,1.145,0,0,1-.234-.024,1.126,1.126,0,0,1-.869-1.334l4.54-21.556a1.126,1.126,0,1,1,2.2.464l-4.54,21.556A1.126,1.126,0,0,1,190.081,176.832Zm0,0" transform="translate(-158.566 -128.415)" fill="#232323"/>
  <path id="Path_91" data-name="Path 91" d="M60.629,60.161H7.559A7.567,7.567,0,0,1,0,52.6V7.559A7.567,7.567,0,0,1,7.559,0H60.629a7.567,7.567,0,0,1,7.559,7.559V52.6A7.567,7.567,0,0,1,60.629,60.161ZM7.559,2.251A5.313,5.313,0,0,0,2.251,7.559V52.6a5.313,5.313,0,0,0,5.307,5.307H60.629A5.313,5.313,0,0,0,65.936,52.6V7.559a5.313,5.313,0,0,0-5.307-5.307Zm0,0" fill="#232323"/>
  <path id="Path_92" data-name="Path 92" d="M67.062,100.341H1.126a1.126,1.126,0,1,1,0-2.251H67.062a1.126,1.126,0,1,1,0,2.251Zm0,0" transform="translate(0 -82.315)" fill="#232323"/>
  <path id="Path_93" data-name="Path 93" d="M101.012,41.414a3.563,3.563,0,1,1,3.563-3.563A3.567,3.567,0,0,1,101.012,41.414Zm0-4.874a1.311,1.311,0,1,0,1.311,1.311A1.313,1.313,0,0,0,101.012,36.541Zm0,0" transform="translate(-81.778 -28.775)" fill="#232323"/>
  <path id="Path_94" data-name="Path 94" d="M32.949,41.2a3.563,3.563,0,1,1,3.563-3.563A3.567,3.567,0,0,1,32.949,41.2Zm0-4.874a1.311,1.311,0,1,0,1.311,1.311A1.313,1.313,0,0,0,32.949,36.326Zm0,0" transform="translate(-24.661 -28.594)" fill="#232323"/>
  <path id="Path_95" data-name="Path 95" d="M169.078,41.628a3.562,3.562,0,1,1,3.563-3.563A3.566,3.566,0,0,1,169.078,41.628Zm0-4.874a1.311,1.311,0,1,0,1.311,1.311A1.312,1.312,0,0,0,169.078,36.755Zm0,0" transform="translate(-138.897 -28.955)" fill="#232323"/>
</svg>
